<?xml version="1.0" standalone="no"?>
<!DOCTYPE svg PUBLIC "-//W3C//DTD SVG 20010904//EN"
 "http://www.w3.org/TR/2001/REC-SVG-20010904/DTD/svg10.dtd">
<svg version="1.0" xmlns="http://www.w3.org/2000/svg"
 width="224.000000pt" height="224.000000pt" viewBox="0 0 224.000000 224.000000"
 preserveAspectRatio="xMidYMid meet">
<metadata>
Created by potrace 1.14, written by Peter Selinger 2001-2017
</metadata>
<g transform="translate(0.000000,224.000000) scale(0.100000,-0.100000)"
fill="#000000" stroke="none">
<path d="M1555 2170 c-56 -22 -231 -353 -285 -539 -11 -36 -37 -124 -59 -194
-22 -70 -45 -154 -51 -185 -7 -31 -27 -120 -47 -197 -56 -225 -82 -379 -103
-595 -4 -52 -14 -140 -20 -195 -13 -114 -5 -238 16 -256 9 -7 42 -10 91 -8 73
4 79 6 96 32 13 21 17 49 17 120 0 50 6 126 14 167 8 41 12 78 9 83 -13 22 53
451 98 629 10 42 19 91 19 110 0 18 14 83 31 143 31 112 58 218 85 335 24 103
64 232 87 275 22 44 31 119 17 146 -7 11 -5 29 5 53 16 37 20 86 8 85 -5 0
-17 -4 -28 -9z"/>
<path d="M965 1741 c-26 -11 -113 -112 -153 -176 -56 -92 -161 -451 -178 -610
-3 -33 -12 -87 -19 -120 -18 -82 -38 -306 -28 -315 4 -5 27 -11 51 -15 36 -6
42 -4 42 11 0 9 3 14 6 11 4 -3 15 5 26 18 14 18 20 47 25 112 3 48 11 111 18
138 8 28 17 75 20 105 4 30 16 107 27 170 11 63 24 135 28 160 16 102 43 206
61 242 11 21 21 52 23 69 2 17 8 35 14 41 6 6 8 16 6 23 -6 16 28 86 50 104
16 14 22 42 9 40 -5 0 -17 -4 -28 -8z"/>
<path d="M442 1613 c-27 -23 -72 -113 -79 -161 -4 -20 -12 -46 -19 -57 -31
-50 -48 -141 -48 -268 -1 -103 2 -130 14 -137 23 -15 71 -8 81 12 6 10 14 16
18 13 5 -2 9 57 9 133 0 113 3 146 20 188 17 42 19 58 10 100 -14 68 -13 81
17 137 14 27 25 51 25 53 0 10 -30 2 -48 -13z"/>
</g>
</svg>
